<?xml version="1.0" encoding="UTF-8"?>
<svg id="Layer_2" data-name="Layer 2" xmlns="http://www.w3.org/2000/svg" viewBox="0 0 1935.91 784">
  <defs>
    <style>
      .cls-1 {
        fill: #00323b;
      }

      .cls-2 {
        fill: #231f20;
        opacity: 0;
      }
    </style>
  </defs>
  <g id="Layer_1-2" data-name="Layer 1">
    <g>
      <g>
        <path class="cls-1" d="m437.4,132.86h-42.77l-4.29,14.15h-19.87l37.52-111.3h16.06l37.52,111.3h-19.87l-4.29-14.15Zm-4.93-16.38l-16.54-55.17-16.54,55.17h33.07Z"/>
        <path class="cls-1" d="m474.77,72.91h17.33v10.33c4.61-7.95,13.2-12.24,24.17-12.24,17.81,0,27.03,10.02,27.03,29.41v46.59h-17.33v-38.64c0-15.74-4.13-22.58-16.22-22.58-11.29,0-17.65,7.47-17.65,20.51v40.7h-17.33v-74.09Z"/>
        <path class="cls-1" d="m604.51,131.74v15.26c-2.7.48-7.79.95-12.88.95-8.43,0-24.01-1.11-24.01-26.08v-34.5h-12.56v-14.47h12.56v-22.42h17.33v22.42h17.01v14.47h-17.01v30.53c0,12.88,3.98,14.47,10.81,14.47,2.7,0,7-.32,8.74-.64Z"/>
        <path class="cls-1" d="m688.62,100.42v46.59h-17.33v-38.64c0-15.74-4.13-22.58-16.22-22.58-11.29,0-17.65,7.47-17.65,20.51v40.7h-17.33V35.71h17.33v47.54c4.61-7.95,13.2-12.24,24.17-12.24,17.81,0,27.03,10.02,27.03,29.41Z"/>
        <path class="cls-1" d="m704.2,109.96c0-21.78,14.63-38.95,39.11-38.95s39.11,17.17,39.11,38.95-14.63,38.95-39.11,38.95-39.11-17.17-39.11-38.95Zm60.9,0c0-13.51-7.79-23.53-21.78-23.53s-21.78,10.02-21.78,23.53,7.79,23.53,21.78,23.53,21.78-10.02,21.78-23.53Z"/>
        <path class="cls-1" d="m798.81,72.91h17.33v10.33c4.61-7.95,13.2-12.24,24.17-12.24,17.81,0,27.03,10.02,27.03,29.41v46.59h-17.33v-38.64c0-15.74-4.13-22.58-16.22-22.58-11.29,0-17.65,7.47-17.65,20.51v40.7h-17.33v-74.09Z"/>
        <path class="cls-1" d="m956.22,72.91v74.41c0,11.61-3.5,20.35-9.7,26.39-6.04,5.56-14.63,8.59-25.12,8.59s-19.56-2.7-25.44-7.63c-5.25-4.61-8.11-11.13-8.27-19.24h17.49c.79,8.11,4.77,12.56,15.9,12.56,10.33,0,17.81-6.2,17.81-21.94v-9.38c-4.61,7.95-12.88,12.24-23.85,12.24-18.28,0-27.35-13.04-27.35-30.85v-45.15h17.33v41.5c0,10.97,3.66,19.24,16.06,19.24s17.81-9.7,17.81-22.42v-38.32h17.33Z"/>
        <path class="cls-1" d="m1018.39,35.71h64.23v16.38h-45.95v31.48h45.95v16.38h-45.95v30.69h45.95v16.38h-64.23V35.71Z"/>
        <path class="cls-1" d="m1174.05,35.71v111.3h-17.33v-10.02c-4.45,7.47-14.63,11.92-23.69,11.92-23.85,0-36.41-17.17-36.41-38.95s13.83-38.95,36.89-38.95c9.86,0,18.76,4.45,23.21,11.92v-47.22h17.33Zm-16.54,74.25c0-12.72-7.15-23.53-21.94-23.53-13.51,0-21.62,10.02-21.62,23.53s8.11,23.53,21.62,23.53c14.79,0,21.94-10.81,21.94-23.53Z"/>
        <path class="cls-1" d="m1185.65,72.91h19.08l15.42,48.97,16.06-48.97h18.76l16.06,48.97,15.42-48.97h19.08l-27.35,74.09h-14.63l-17.97-52.79-17.97,52.79h-14.63l-27.35-74.09Z"/>
        <path class="cls-1" d="m1308.4,109.96c0-21.78,13.83-38.95,36.89-38.95,9.86,0,18.76,4.45,23.21,11.92v-10.02h17.33v74.09h-17.33v-10.02c-4.45,7.47-14.63,11.92-23.69,11.92-23.85,0-36.41-17.17-36.41-38.95Zm60.9,0c0-12.72-7.16-23.53-21.94-23.53-13.51,0-21.62,10.02-21.62,23.53s8.11,23.53,21.62,23.53c14.79,0,21.94-10.81,21.94-23.53Z"/>
        <path class="cls-1" d="m1407.78,72.91h17.33v14.31c2.7-10.49,11.61-15.26,19.72-15.26,2.7,0,4.93.16,6.84.64v15.9c-2.7-.32-4.13-.32-6.84-.32-12.24,0-19.72,9.22-19.72,26.08v32.75h-17.33v-74.09Z"/>
        <path class="cls-1" d="m1534.34,35.71v111.3h-17.33v-10.02c-4.45,7.47-14.63,11.92-23.69,11.92-23.85,0-36.41-17.17-36.41-38.95s13.83-38.95,36.89-38.95c9.86,0,18.76,4.45,23.21,11.92v-47.22h17.33Zm-16.54,74.25c0-12.72-7.16-23.53-21.94-23.53-13.52,0-21.62,10.02-21.62,23.53s8.11,23.53,21.62,23.53c14.79,0,21.94-10.81,21.94-23.53Z"/>
        <path class="cls-1" d="m1550.72,124.27h17.33c0,6.36,6.2,10.81,15.1,10.81,6.52,0,10.65-3.5,10.65-8.74,0-3.34-1.27-6.68-5.57-7.79l-19.08-5.25c-10.97-3.02-16.06-10.65-16.06-20.51,0-12.08,11.29-21.78,28.46-21.78,19.4,0,29.26,9.86,29.26,23.05h-17.01c0-6.2-4.77-9.86-12.88-9.86-6.04,0-10.65,3.02-10.65,7.63,0,4.13,2.54,6.84,6.36,7.95l17.65,5.09c10.02,2.86,17.17,10.33,17.17,19.87,0,14.15-10.33,24.17-29.26,24.17s-31.48-11.13-31.48-24.64Z"/>
      </g>
      <g>
        <path class="cls-1" d="m379.3,236.26h6.84l43.41,101.92,43.41-101.92h7v111.3h-6.84v-96.35l-40.54,96.35h-5.88l-40.54-96.51v96.51h-6.84v-111.3Z"/>
        <path class="cls-1" d="m500.77,311.94c0-21.46,13.99-37.84,36.09-37.84,14.95,0,26.08,8.27,30.69,20.51v-18.6h6.68v71.55h-6.68v-18.44c-4.61,11.92-16.06,20.35-30.85,20.35-22.26,0-35.93-16.38-35.93-37.52Zm67.1,0c0-17.17-11.61-31.64-30.53-31.64s-29.89,13.51-29.89,31.64,11.61,31.32,29.89,31.32,30.53-14.63,30.53-31.32Z"/>
        <path class="cls-1" d="m600.94,276.01h6.68v19.72c2.86-12.24,12.24-21.62,28.62-21.62,18.6,0,27.82,11.29,27.82,31.32v42.13h-6.84v-40.07c0-17.81-7.63-27.35-22.9-27.35-18.13,0-26.71,13.83-26.71,32.44v34.98h-6.68v-71.55Z"/>
        <path class="cls-1" d="m683.3,311.94c0-21.46,13.99-37.84,36.09-37.84,14.95,0,26.08,8.27,30.69,20.51v-18.6h6.68v71.55h-6.68v-18.44c-4.61,11.92-16.06,20.35-30.85,20.35-22.26,0-35.93-16.38-35.93-37.52Zm67.1,0c0-17.17-11.61-31.64-30.53-31.64s-29.89,13.51-29.89,31.64,11.61,31.32,29.89,31.32,30.53-14.63,30.53-31.32Z"/>
        <path class="cls-1" d="m850.25,276.01v72.34c0,12.4-4.13,22.1-11.77,28.3-6.04,4.93-14.31,7.47-24.64,7.47s-19.72-2.7-25.92-7.79c-5.72-4.61-9.06-10.81-9.06-17.81h6.84c.48,10.33,10.02,19.56,28.14,19.56,19.24,0,29.73-10.65,29.73-29.41v-19.56c-4.93,12.72-16.69,20.35-30.85,20.35-21.15,0-35.93-16.22-35.93-37.52s15.1-37.84,36.09-37.84c14.31,0,25.76,7.47,30.69,20.51v-18.6h6.68Zm-6.36,35.93c0-17.97-12.56-31.64-30.53-31.64s-29.89,13.51-29.89,31.64,12.56,31.32,29.89,31.32,30.53-13.67,30.53-31.32Z"/>
        <path class="cls-1" d="m872.51,251.68c0-4.45,3.34-7.79,7.79-7.79s7.95,3.34,7.95,7.79-3.34,7.95-7.95,7.95-7.79-3.5-7.79-7.95Zm4.45,24.33h6.68v71.55h-6.68v-71.55Z"/>
        <path class="cls-1" d="m910.35,276.01h6.68v19.72c2.86-12.24,12.24-21.62,28.62-21.62,18.6,0,27.82,11.29,27.82,31.32v42.13h-6.84v-40.07c0-17.81-7.63-27.35-22.9-27.35-18.13,0-26.71,13.83-26.71,32.44v34.98h-6.68v-71.55Z"/>
        <path class="cls-1" d="m1066.17,276.01v72.34c0,12.4-4.13,22.1-11.77,28.3-6.04,4.93-14.31,7.47-24.64,7.47s-19.72-2.7-25.92-7.79c-5.72-4.61-9.06-10.81-9.06-17.81h6.84c.48,10.33,10.02,19.56,28.14,19.56,19.24,0,29.73-10.65,29.73-29.41v-19.56c-4.93,12.72-16.69,20.35-30.85,20.35-21.15,0-35.93-16.22-35.93-37.52s15.1-37.84,36.09-37.84c14.31,0,25.76,7.47,30.69,20.51v-18.6h6.68Zm-6.36,35.93c0-17.97-12.56-31.64-30.53-31.64s-29.89,13.51-29.89,31.64,12.56,31.32,29.89,31.32,30.53-13.67,30.53-31.32Z"/>
        <path class="cls-1" d="m1134.38,236.26h31.16c36.89,0,57.24,27.35,57.24,55.65s-20.35,55.65-57.24,55.65h-31.16v-111.3Zm30.69,104.78c32.91,0,50.72-24.33,50.72-49.13s-17.81-49.13-50.72-49.13h-23.69v98.26h23.69Z"/>
        <path class="cls-1" d="m1237.57,251.68c0-4.45,3.34-7.79,7.79-7.79s7.95,3.34,7.95,7.79-3.34,7.95-7.95,7.95-7.79-3.5-7.79-7.95Zm4.45,24.33h6.68v71.55h-6.68v-71.55Z"/>
        <path class="cls-1" d="m1275.41,276.01h6.68v21.46c3.66-16.22,13.99-23.21,25.28-23.21,1.91,0,4.77.32,6.36.64v6.36c-2.07-.48-4.45-.48-6.84-.48-18.92,0-24.8,20.83-24.8,36.09v30.69h-6.68v-71.55Z"/>
        <path class="cls-1" d="m1329.15,312.58v.32c0,18.28,10.97,30.37,27.82,30.37,12.08,0,21.62-6.2,24.96-15.58h6.68c-3.02,13.04-15.74,21.78-31.48,21.78-21.15,0-34.82-15.1-34.82-37.84s13.67-37.52,34.18-37.52,33.23,13.83,33.23,32.75c0,2.54-.16,3.82-.32,5.72h-60.26Zm.16-5.72h53.74c0-15.74-10.18-27.03-26.55-27.03s-26.08,10.97-27.19,27.03Z"/>
        <path class="cls-1" d="m1402.77,311.78c0-22.1,13.83-37.36,35.46-37.36,18.29,0,30.53,9.86,32.44,25.12h-6.84c-2.07-12.24-11.92-18.92-25.6-18.92-17.65,0-28.78,12.56-28.78,31.16s11.13,31.16,28.78,31.16c13.67,0,23.53-6.52,25.6-18.76h6.84c-1.91,15.26-14.15,25.12-32.44,25.12-21.62,0-35.46-15.42-35.46-37.52Z"/>
        <path class="cls-1" d="m1525.67,341.04v6.2c-2.54.79-7.31,1.27-11.13,1.27-9.38,0-19.4-2.39-19.4-23.85v-42.77h-14.79v-5.88h14.79v-24.96h6.52v24.96h21.62v5.88h-21.62v41.82c0,16.22,6.36,18.44,13.83,18.44,3.02,0,7.47-.32,10.18-1.11Z"/>
        <path class="cls-1" d="m1535.53,311.62c0-20.67,13.99-37.68,36.25-37.68s36.41,17.01,36.41,37.68-13.99,37.84-36.41,37.84-36.25-17.01-36.25-37.84Zm65.98,0c0-17.17-11.45-31.32-29.73-31.32s-29.57,14.15-29.57,31.48,11.29,31.32,29.57,31.32,29.73-14.15,29.73-31.48Z"/>
        <path class="cls-1" d="m1628.23,276.01h6.68v21.46c3.66-16.22,13.99-23.21,25.28-23.21,1.91,0,4.77.32,6.36.64v6.36c-2.07-.48-4.45-.48-6.84-.48-18.92,0-24.8,20.83-24.8,36.09v30.69h-6.68v-71.55Z"/>
      </g>
      <g>
        <path class="cls-1" d="m380.68,476.39h10.35v53.28h25.29v9.72h-35.64v-63Z"/>
        <path class="cls-1" d="m461.77,521.66h-31.14c.27,6.66,4.59,10.26,11.7,10.26,4.86,0,7.74-1.53,9.36-4.77h9.9c-1.26,7.83-9.18,13.32-19.26,13.32-13.23,0-21.42-8.46-21.42-22.05s8.28-22.05,21.06-22.05c11.97,0,20.07,8.1,20.07,19.89,0,1.89-.09,2.88-.27,5.4Zm-9.36-7.47c-.09-6.48-3.87-10.08-10.62-10.08s-11.07,4.14-11.16,10.08h21.78Z"/>
        <path class="cls-1" d="m463.03,497.45h10.53l11.61,28.8,11.61-28.8h10.53l-18.18,41.94h-7.92l-18.18-41.94Z"/>
        <path class="cls-1" d="m549.07,521.66h-31.14c.27,6.66,4.59,10.26,11.7,10.26,4.86,0,7.74-1.53,9.36-4.77h9.9c-1.26,7.83-9.18,13.32-19.26,13.32-13.23,0-21.42-8.46-21.42-22.05s8.28-22.05,21.06-22.05c11.97,0,20.07,8.1,20.07,19.89,0,1.89-.09,2.88-.27,5.4Zm-9.36-7.47c-.09-6.48-3.87-10.08-10.62-10.08s-11.07,4.14-11.16,10.08h21.78Z"/>
        <path class="cls-1" d="m558.43,476.39h9.81v63h-9.81v-63Z"/>
        <path class="cls-1" d="m615.94,511.76l9-4.95c5.04-2.79,7.65-6.66,7.65-11.61,0-5.4-3.69-9.09-9-9.09-6.84,0-10.71,4.59-10.71,12.87h-10.71c0-13.32,8.37-21.87,21.42-21.87,12.33,0,19.98,6.75,19.98,17.55,0,7.47-4.41,14.4-11.97,18.72l-8.82,5.04c-6.75,3.87-8.64,6.12-9.72,11.7h30.33v9.27h-42.57c0-13.5,4.5-21.78,15.12-27.63Z"/>
        <path class="cls-1" d="m679.3,487.64h-27.9v-9.45h43.38l-30.87,61.2h-11.43l26.82-51.75Z"/>
        <path class="cls-1" d="m689.92,550.01v-4.41c1.35.18,1.98.18,3.96.18,2.25,0,3.96-.81,5.04-2.16,1.17-1.35,1.8-3.24,1.98-5.22-.99,1.17-2.61,1.53-4.05,1.53-3.78,0-6.93-2.7-6.93-7.11s3.15-7.38,7.47-7.38c3.78,0,8.82,2.97,8.82,10.89s-4.23,13.95-12.78,13.95c-1.17,0-2.61-.09-3.51-.27Z"/>
        <path class="cls-1" d="m749.5,497.27h-12.96v-8.64c11.43,0,13.86-2.88,13.86-10.44h9.36v61.2h-10.26v-42.12Z"/>
        <path class="cls-1" d="m772.9,508.79c0-20.7,8.1-31.68,23.49-31.68s23.49,10.98,23.49,31.68-8.1,31.68-23.49,31.68-23.49-10.98-23.49-31.68Zm37.17,0c0-15.21-4.5-22.68-13.68-22.68s-13.68,7.47-13.68,22.68,4.5,22.68,13.68,22.68,13.68-7.47,13.68-22.68Z"/>
        <path class="cls-1" d="m839.68,497.27h-12.96v-8.64c11.43,0,13.86-2.88,13.86-10.44h9.36v61.2h-10.26v-42.12Z"/>
        <path class="cls-1" d="m884.32,507.89c0-19.26,12.24-33.03,32.76-33.03,17.37,0,28.62,9.81,30.51,23.13h-11.34c-1.98-8.55-8.64-13.86-19.08-13.86-13.95,0-21.96,9.36-21.96,23.76s8.01,23.76,21.96,23.76c10.44,0,17.1-5.31,19.08-13.86h11.34c-1.89,13.32-13.14,23.13-30.51,23.13-20.52,0-32.76-13.77-32.76-33.03Z"/>
        <path class="cls-1" d="m953.17,518.42c0-12.33,8.28-22.05,22.14-22.05s22.14,9.72,22.14,22.05-8.28,22.05-22.14,22.05-22.14-9.72-22.14-22.05Zm34.47,0c0-7.65-4.41-13.32-12.33-13.32s-12.33,5.67-12.33,13.32,4.41,13.32,12.33,13.32,12.33-5.67,12.33-13.32Z"/>
        <path class="cls-1" d="m1006.54,476.39h9.81v63h-9.81v-63Z"/>
        <path class="cls-1" d="m1028.59,476.39h9.81v63h-9.81v-63Z"/>
        <path class="cls-1" d="m1048.3,484.13c0-4.05,2.97-7.29,7.29-7.29s7.29,3.24,7.29,7.29-2.97,7.29-7.29,7.29-7.29-3.24-7.29-7.29Zm2.34,13.32h9.81v41.94h-9.81v-41.94Z"/>
        <path class="cls-1" d="m1072.69,497.45h9.81v5.85c2.61-4.5,7.47-6.93,13.68-6.93,10.08,0,15.3,5.67,15.3,16.65v26.37h-9.81v-21.87c0-8.91-2.34-12.78-9.18-12.78-6.39,0-9.99,4.23-9.99,11.61v23.04h-9.81v-41.94Z"/>
        <path class="cls-1" d="m1120.12,526.52h9.81c0,3.6,3.51,6.12,8.55,6.12,3.69,0,6.03-1.98,6.03-4.95,0-1.89-.72-3.78-3.15-4.41l-10.8-2.97c-6.21-1.71-9.09-6.03-9.09-11.61,0-6.84,6.39-12.33,16.11-12.33,10.98,0,16.56,5.58,16.56,13.05h-9.63c0-3.51-2.7-5.58-7.29-5.58-3.42,0-6.03,1.71-6.03,4.32,0,2.34,1.44,3.87,3.6,4.5l9.99,2.88c5.67,1.62,9.72,5.85,9.72,11.25,0,8.01-5.85,13.68-16.56,13.68s-17.82-6.3-17.82-13.95Z"/>
        <path class="cls-1" d="m1182.58,518.78h10.35c0,8.19,4.68,13.14,12.51,13.14,6.84,0,10.62-3.15,10.62-8.82,0-4.77-2.25-7.2-9.36-10.08l-10.26-4.14c-7.92-3.06-12.06-8.73-12.06-16.74,0-10.26,8.28-17.28,20.16-17.28,12.51,0,20.79,7.83,20.79,19.71h-10.35c0-6.93-3.78-10.89-10.8-10.89-5.94,0-9.36,3.06-9.36,7.83,0,4.32,3.06,7.2,10.44,10.17l9.27,3.78c7.92,3.24,11.88,8.82,11.88,17.37,0,10.8-8.37,18.09-20.88,18.09-14.58,0-22.95-8.01-22.95-22.14Z"/>
        <path class="cls-1" d="m1258.54,530.75v8.64c-1.53.27-4.41.54-7.29.54-4.77,0-13.59-.63-13.59-14.76v-19.53h-7.11v-8.19h7.11v-12.69h9.81v12.69h9.63v8.19h-9.63v17.28c0,7.29,2.25,8.19,6.12,8.19,1.53,0,3.96-.18,4.95-.36Z"/>
        <path class="cls-1" d="m1267.18,497.45h9.81v8.1c1.53-5.94,6.57-8.64,11.16-8.64,1.53,0,2.79.09,3.87.36v9c-1.53-.18-2.34-.18-3.87-.18-6.93,0-11.16,5.22-11.16,14.76v18.54h-9.81v-41.94Z"/>
        <path class="cls-1" d="m1336.12,521.66h-31.14c.27,6.66,4.59,10.26,11.7,10.26,4.86,0,7.74-1.53,9.36-4.77h9.9c-1.26,7.83-9.18,13.32-19.26,13.32-13.23,0-21.42-8.46-21.42-22.05s8.28-22.05,21.06-22.05c11.97,0,20.07,8.1,20.07,19.89,0,1.89-.09,2.88-.27,5.4Zm-9.36-7.47c-.09-6.48-3.87-10.08-10.62-10.08s-11.07,4.14-11.16,10.08h21.78Z"/>
        <path class="cls-1" d="m1384.08,521.66h-31.14c.27,6.66,4.59,10.26,11.7,10.26,4.86,0,7.74-1.53,9.36-4.77h9.9c-1.26,7.83-9.18,13.32-19.26,13.32-13.23,0-21.42-8.46-21.42-22.05s8.28-22.05,21.06-22.05c11.97,0,20.07,8.1,20.07,19.89,0,1.89-.09,2.88-.27,5.4Zm-9.36-7.47c-.09-6.48-3.87-10.08-10.62-10.08s-11.07,4.14-11.16,10.08h21.78Z"/>
        <path class="cls-1" d="m1416.93,530.75v8.64c-1.53.27-4.41.54-7.29.54-4.77,0-13.59-.63-13.59-14.76v-19.53h-7.11v-8.19h7.11v-12.69h9.81v12.69h9.63v8.19h-9.63v17.28c0,7.29,2.25,8.19,6.12,8.19,1.53,0,3.96-.18,4.95-.36Z"/>
      </g>
      <g>
        <path class="cls-1" d="m382.26,583.07h3.83l24.3,57.05,24.3-57.05h3.92v62.3h-3.83v-53.94l-22.7,53.94h-3.29l-22.7-54.03v54.03h-3.83v-62.3Z"/>
        <path class="cls-1" d="m454.35,625.79v.18c0,10.24,6.14,17,15.58,17,6.76,0,12.1-3.47,13.97-8.72h3.74c-1.69,7.3-8.81,12.19-17.62,12.19-11.84,0-19.49-8.46-19.49-21.18s7.65-21,19.14-21,18.6,7.74,18.6,18.33c0,1.42-.09,2.14-.18,3.2h-33.73Zm.09-3.2h30.08c0-8.81-5.7-15.13-14.86-15.13s-14.6,6.14-15.22,15.13Z"/>
        <path class="cls-1" d="m499.65,583.07h3.74v62.3h-3.74v-62.3Z"/>
        <path class="cls-1" d="m559.72,625.44c0,12.11-8.46,21.01-20.12,21.01-7.92,0-14.51-4.36-17.27-11.39v10.32h-3.74v-62.3h3.74v32.66c2.76-7.21,9.35-11.48,17.44-11.48,11.57,0,19.94,8.81,19.94,21.18Zm-3.74,0c0-10.24-7.03-17.71-16.73-17.71s-17.09,7.48-17.09,17.71,7.3,17.53,17.09,17.53,16.73-7.48,16.73-17.53Z"/>
        <path class="cls-1" d="m567.47,625.26c0-11.57,7.83-21.09,20.29-21.09s20.38,9.52,20.38,21.09-7.83,21.18-20.38,21.18-20.29-9.52-20.29-21.18Zm36.94,0c0-9.61-6.41-17.53-16.64-17.53s-16.55,7.92-16.55,17.62,6.32,17.53,16.55,17.53,16.64-7.92,16.64-17.62Z"/>
        <path class="cls-1" d="m619.17,629v-23.67h3.74v22.87c0,8.54,3.83,14.77,13.17,14.77,10.5,0,14.77-9.61,14.77-17.18v-20.47h3.74v40.05h-3.74v-10.86c-1.78,6.41-7.48,11.93-15.67,11.93-9.52,0-16.02-5.79-16.02-17.45Z"/>
        <path class="cls-1" d="m669.81,605.32h3.74v12.02c2.05-9.08,7.83-13,14.15-13,1.07,0,2.67.18,3.56.36v3.56c-1.16-.27-2.49-.27-3.83-.27-10.59,0-13.88,11.66-13.88,20.2v17.18h-3.74v-40.05Z"/>
        <path class="cls-1" d="m701.05,605.32h3.74v11.04c1.6-6.85,6.85-12.1,16.02-12.1,10.41,0,15.58,6.32,15.58,17.53v23.59h-3.83v-22.43c0-9.97-4.27-15.31-12.82-15.31-10.15,0-14.95,7.74-14.95,18.16v19.58h-3.74v-40.05Z"/>
        <path class="cls-1" d="m751.25,625.79v.18c0,10.24,6.14,17,15.58,17,6.76,0,12.1-3.47,13.97-8.72h3.74c-1.69,7.3-8.81,12.19-17.62,12.19-11.84,0-19.49-8.46-19.49-21.18s7.65-21,19.14-21,18.6,7.74,18.6,18.33c0,1.42-.09,2.14-.18,3.2h-33.73Zm.09-3.2h30.08c0-8.81-5.7-15.13-14.86-15.13s-14.6,6.14-15.22,15.13Z"/>
        <path class="cls-1" d="m812.39,583.07h4.18l19.85,56.52,19.76-56.52h4.18l-21.98,62.3h-3.92l-22.07-62.3Z"/>
        <path class="cls-1" d="m868.82,583.07h3.92v62.3h-3.92v-62.3Z"/>
        <path class="cls-1" d="m884.66,614.22c0-17.62,12.02-32.4,31.86-32.4,16.38,0,25.99,8.54,29.1,20.03h-4.18c-3.12-9.61-11.04-16.38-24.83-16.38-17.53,0-27.95,13.08-27.95,28.75s10.41,28.75,27.95,28.75c13.8,0,21.72-6.76,24.83-16.38h4.18c-3.12,11.48-12.73,20.03-29.1,20.03-19.85,0-31.86-14.86-31.86-32.4Z"/>
        <path class="cls-1" d="m976.95,628.55h4.01c0,8.63,6.32,14.15,16.11,14.15s15.93-5.34,15.93-13.44-6.05-13.44-15.58-13.44h-4.98v-3.47h4.9c8.99,0,14.6-4.81,14.6-12.46s-5.87-12.46-14.69-12.46-15.22,5.16-15.22,13.08h-3.83c0-9.97,7.48-16.55,18.96-16.55s18.69,6.32,18.69,15.84c0,7.74-4.54,12.91-12.64,14.33,7.57.27,13.62,6.94,13.62,15.22,0,10.15-7.92,16.91-19.76,16.91s-20.11-6.94-20.11-17.71Z"/>
        <path class="cls-1" d="m1026.08,614.93c0-20.29,7.74-31.15,22.16-31.15s22.25,10.86,22.25,31.15-7.74,31.33-22.25,31.33-22.16-10.86-22.16-31.33Zm40.67,0c0-18.25-6.23-27.59-18.51-27.59s-18.42,9.35-18.42,27.59,6.23,27.77,18.42,27.77,18.51-9.43,18.51-27.77Z"/>
        <path class="cls-1" d="m1080.01,614.93c0-20.29,7.74-31.15,22.16-31.15s22.25,10.86,22.25,31.15-7.74,31.33-22.25,31.33-22.16-10.86-22.16-31.33Zm40.67,0c0-18.25-6.23-27.59-18.51-27.59s-18.42,9.35-18.42,27.59,6.23,27.77,18.42,27.77,18.51-9.43,18.51-27.77Z"/>
        <path class="cls-1" d="m1133.94,614.93c0-20.29,7.74-31.15,22.16-31.15s22.25,10.86,22.25,31.15-7.74,31.33-22.25,31.33-22.16-10.86-22.16-31.33Zm40.67,0c0-18.25-6.23-27.59-18.51-27.59s-18.42,9.35-18.42,27.59,6.23,27.77,18.42,27.77,18.51-9.43,18.51-27.77Z"/>
        <path class="cls-1" d="m1187.79,655.52v-2.49c.62.18,1.16.18,2.05.18,2.85,0,4.81-1.87,5.07-4.72.27-1.69-.18-3.29-.45-4-.62.89-1.69,1.25-2.85,1.25-2.4,0-4.27-1.78-4.27-4.36,0-2.4,1.69-4.36,4.54-4.36,3.65,0,6.68,3.47,6.68,8.99,0,6.05-3.56,9.79-8.63,9.79-.44,0-1.51-.09-2.14-.27Z"/>
        <path class="cls-1" d="m1267.89,632.56h-29.37l-4.18,12.82h-4.18l21.27-62.3h3.65l21.27,62.3h-4.18l-4.27-12.82Zm-1.16-3.65l-13.53-40.76-13.44,40.76h26.97Z"/>
        <path class="cls-1" d="m1285.42,629v-23.67h3.74v22.87c0,8.54,3.83,14.77,13.17,14.77,10.5,0,14.77-9.61,14.77-17.18v-20.47h3.74v40.05h-3.74v-10.86c-1.78,6.41-7.48,11.93-15.66,11.93-9.52,0-16.02-5.79-16.02-17.45Z"/>
        <path class="cls-1" d="m1332.32,633.89h3.74c0,4.9,4.09,9.26,12.28,9.26,6.32,0,10.77-2.76,10.77-7.92,0-3.2-1.69-6.41-5.61-7.3l-11.66-2.85c-6.05-1.51-8.46-5.52-8.46-10.06,0-6.67,6.05-10.77,14.33-10.77,9.08,0,14.51,4.36,14.51,11.3h-3.74c-.09-4.98-4.18-8.19-11.12-8.19-5.61,0-10.24,2.49-10.24,7.65,0,2.58.98,5.61,6.67,6.94l10.95,2.76c6.23,1.51,8.19,6.14,8.19,10.15,0,7.39-5.87,11.57-14.6,11.57-10.32,0-16.02-5.88-16.02-12.55Z"/>
        <path class="cls-1" d="m1391.95,641.72v3.47c-1.42.44-4.09.71-6.23.71-5.25,0-10.86-1.33-10.86-13.35v-23.94h-8.28v-3.29h8.28v-13.97h3.65v13.97h12.1v3.29h-12.1v23.41c0,9.08,3.56,10.32,7.74,10.32,1.69,0,4.18-.18,5.7-.62Z"/>
        <path class="cls-1" d="m1402.28,605.32h3.74v12.02c2.05-9.08,7.83-13,14.15-13,1.07,0,2.67.18,3.56.36v3.56c-1.16-.27-2.49-.27-3.83-.27-10.59,0-13.88,11.66-13.88,20.2v17.18h-3.74v-40.05Z"/>
        <path class="cls-1" d="m1428,625.44c0-12.01,7.83-21.18,20.2-21.18,8.37,0,14.6,4.63,17.18,11.48v-10.41h3.74v40.05h-3.74v-10.32c-2.58,6.67-8.99,11.39-17.27,11.39-12.46,0-20.12-9.17-20.12-21.01Zm37.56,0c0-9.61-6.5-17.71-17.09-17.71s-16.73,7.56-16.73,17.71,6.5,17.53,16.73,17.53,17.09-8.19,17.09-17.53Z"/>
        <path class="cls-1" d="m1484.34,583.07h3.74v62.3h-3.74v-62.3Z"/>
        <path class="cls-1" d="m1500.8,591.7c0-2.49,1.87-4.36,4.36-4.36s4.45,1.87,4.45,4.36-1.87,4.45-4.45,4.45-4.36-1.96-4.36-4.45Zm2.49,13.62h3.74v40.05h-3.74v-40.05Z"/>
        <path class="cls-1" d="m1518.51,625.44c0-12.01,7.83-21.18,20.2-21.18,8.37,0,14.6,4.63,17.18,11.48v-10.41h3.74v40.05h-3.74v-10.32c-2.58,6.67-8.99,11.39-17.27,11.39-12.46,0-20.12-9.17-20.12-21.01Zm37.56,0c0-9.61-6.5-17.71-17.09-17.71s-16.73,7.56-16.73,17.71,6.5,17.53,16.73,17.53,17.09-8.19,17.09-17.53Z"/>
      </g>
      <g>
        <path class="cls-1" d="m423.73,711.07c0,12.1-8.54,20.92-20.12,20.92h-17.18v20.47h-3.92v-62.3h21.09c11.66,0,20.12,8.9,20.12,20.92Zm-3.92,0c0-10.06-6.94-17.27-16.38-17.27h-17v34.62h17c9.43,0,16.38-7.39,16.38-17.36Z"/>
        <path class="cls-1" d="m429.78,721.3c0-17,12.02-32.4,31.95-32.4s31.95,15.4,31.95,32.4-12.02,32.4-31.95,32.4-31.95-15.4-31.95-32.4Zm59.81,0c.09-15.13-10.32-28.75-27.86-28.75s-27.95,13.62-27.95,28.75,10.41,28.75,27.95,28.75,27.95-13.62,27.86-28.75Z"/>
        <path class="cls-1" d="m567.01,736.08c0,10.15-7.3,16.38-18.33,16.38h-20.12v-62.3h19.85c10.95,0,18.16,5.96,18.16,16.02,0,8.46-4.81,13.62-11.66,14.86,6.76,1.16,12.1,6.68,12.1,15.04Zm-34.53-42.37v25.63h17.53c7.12,0,12.64-4.9,12.64-12.82s-5.61-12.82-14.33-12.82h-15.84Zm30.62,42.1c0-7.74-5.61-12.91-12.73-12.91h-17.89v25.99h16.2c8.72,0,14.42-4.81,14.42-13.08Z"/>
        <path class="cls-1" d="m574.93,721.3c0-17,12.02-32.4,31.95-32.4s31.95,15.4,31.95,32.4-12.02,32.4-31.95,32.4-31.95-15.4-31.95-32.4Zm59.81,0c.09-15.13-10.32-28.75-27.86-28.75s-27.95,13.62-27.95,28.75,10.41,28.75,27.95,28.75,27.95-13.62,27.86-28.75Z"/>
        <path class="cls-1" d="m662.16,721.3l-20.92-31.15h4.45l18.69,27.95,18.69-27.95h4.45l-20.92,31.15,20.92,31.15h-4.45l-18.69-27.86-18.69,27.86h-4.45l20.92-31.15Z"/>
        <path class="cls-1" d="m719.47,737.68h3.92c.44,7.21,6.32,12.02,15.75,12.02s16.38-6.59,16.38-17.62-5.87-16.91-15.4-16.91c-8.54,0-12.64,3.03-15.4,9.17h-4.01v-32.4h34.71v3.56h-31.06v24.48c2.58-4.9,8.1-8.19,16.11-8.19,11.57,0,18.87,7.48,18.87,20.2s-8.19,21.36-20.2,21.36-19.14-6.5-19.67-15.66Z"/>
        <path class="cls-1" d="m808.56,732.34c0,11.66-7.92,21.18-20.38,21.18s-20.38-9.52-20.38-21.18c0-5.07,1.51-9.79,4.27-13.44l17.53-26.97h4.63l-13.53,20.56c2.23-.8,4.72-1.25,7.48-1.25,12.46,0,20.38,9.52,20.38,21.09Zm-3.83,0c0-9.61-6.32-17.53-16.56-17.53s-16.64,7.92-16.64,17.53,6.41,17.62,16.64,17.62,16.56-7.92,16.56-17.62Z"/>
        <path class="cls-1" d="m819.41,737.68h3.92c.44,7.21,6.32,12.02,15.75,12.02s16.38-6.59,16.38-17.62-5.87-16.91-15.4-16.91c-8.54,0-12.64,3.03-15.4,9.17h-4.01v-32.4h34.71v3.56h-31.06v24.48c2.58-4.9,8.1-8.19,16.11-8.19,11.57,0,18.87,7.48,18.87,20.2s-8.19,21.36-20.2,21.36-19.14-6.5-19.67-15.66Z"/>
        <path class="cls-1" d="m894.44,690.15h34.27v3.65h-30.35v27.86h30.35v3.65h-30.35v27.15h-3.92v-62.3Z"/>
        <path class="cls-1" d="m941.88,690.15h3.74v62.3h-3.74v-62.3Z"/>
        <path class="cls-1" d="m958.34,698.78c0-2.49,1.87-4.36,4.36-4.36s4.45,1.87,4.45,4.36-1.87,4.45-4.45,4.45-4.36-1.96-4.36-4.45Zm2.49,13.62h3.74v40.05h-3.74v-40.05Z"/>
        <path class="cls-1" d="m979.79,712.4h3.74v11.04c1.6-6.85,6.85-12.1,16.02-12.1,10.41,0,15.58,6.32,15.58,17.53v23.59h-3.83v-22.43c0-9.97-4.27-15.31-12.82-15.31-10.15,0-14.95,7.74-14.95,18.16v19.58h-3.74v-40.05Z"/>
        <path class="cls-1" d="m1067.28,690.15v62.3h-3.74v-10.32c-2.58,6.67-8.99,11.39-17.27,11.39-12.46,0-20.12-9.17-20.12-21.01s7.83-21.18,20.2-21.18c8.37,0,14.6,4.63,17.18,11.48v-32.66h3.74Zm-3.56,42.37c0-9.61-6.5-17.71-17.09-17.71s-16.73,7.56-16.73,17.71,6.5,17.53,16.73,17.53,17.09-8.19,17.09-17.53Z"/>
        <path class="cls-1" d="m1082.58,732.87v.18c0,10.24,6.14,17,15.58,17,6.76,0,12.1-3.47,13.97-8.72h3.74c-1.69,7.3-8.81,12.19-17.62,12.19-11.84,0-19.49-8.46-19.49-21.18s7.65-21,19.14-21,18.6,7.74,18.6,18.33c0,1.42-.09,2.14-.18,3.2h-33.73Zm.09-3.2h30.08c0-8.81-5.7-15.13-14.86-15.13s-14.6,6.14-15.22,15.13Z"/>
        <path class="cls-1" d="m1127.88,712.4h3.74v12.02c2.05-9.08,7.83-13,14.15-13,1.07,0,2.67.18,3.56.36v3.56c-1.16-.27-2.49-.27-3.83-.27-10.59,0-13.88,11.66-13.88,20.2v17.18h-3.74v-40.05Z"/>
        <path class="cls-1" d="m1153.51,740.97h3.74c0,4.9,4.09,9.26,12.28,9.26,6.32,0,10.77-2.76,10.77-7.92,0-3.2-1.69-6.41-5.61-7.3l-11.66-2.85c-6.05-1.51-8.46-5.52-8.46-10.06,0-6.67,6.05-10.77,14.33-10.77,9.08,0,14.51,4.36,14.51,11.3h-3.74c-.09-4.98-4.18-8.19-11.13-8.19-5.61,0-10.24,2.49-10.24,7.65,0,2.58.98,5.61,6.68,6.94l10.95,2.76c6.23,1.51,8.19,6.14,8.19,10.15,0,7.39-5.87,11.57-14.6,11.57-10.32,0-16.02-5.88-16.02-12.55Z"/>
        <path class="cls-1" d="m1219.55,690.15h3.92v58.56h29.55v3.74h-33.47v-62.3Z"/>
        <path class="cls-1" d="m1258.35,732.52c0-12.01,7.83-21.18,20.2-21.18,8.37,0,14.6,4.63,17.18,11.48v-10.41h3.74v40.05h-3.74v-10.32c-2.58,6.67-8.99,11.39-17.27,11.39-12.46,0-20.12-9.17-20.12-21.01Zm37.56,0c0-9.61-6.5-17.71-17.09-17.71s-16.73,7.56-16.73,17.71,6.5,17.53,16.73,17.53,17.09-8.19,17.09-17.53Z"/>
        <path class="cls-1" d="m1314.69,712.4h3.74v11.04c1.6-6.85,6.85-12.1,16.02-12.1,10.41,0,15.58,6.32,15.58,17.53v23.59h-3.83v-22.43c0-9.97-4.27-15.31-12.82-15.31-10.15,0-14.95,7.74-14.95,18.16v19.58h-3.74v-40.05Z"/>
        <path class="cls-1" d="m1364.89,732.87v.18c0,10.24,6.14,17,15.58,17,6.76,0,12.1-3.47,13.97-8.72h3.74c-1.69,7.3-8.81,12.19-17.62,12.19-11.84,0-19.49-8.46-19.49-21.18s7.65-21,19.14-21,18.6,7.74,18.6,18.33c0,1.42-.09,2.14-.18,3.2h-33.73Zm.09-3.2h30.08c0-8.81-5.7-15.13-14.86-15.13s-14.6,6.14-15.22,15.13Z"/>
        <path class="cls-1" d="m1430.12,736.43c0-8.01,5.07-13.8,13.08-15.13-7.48-1.51-12.19-7.03-12.19-14.42,0-9.52,7.83-15.84,19.4-15.84s19.4,6.32,19.4,15.84c0,7.39-4.81,12.91-12.19,14.42,7.92,1.33,13.08,7.12,13.08,15.13,0,10.15-8.1,16.91-20.29,16.91s-20.29-6.76-20.29-16.91Zm36.58-.09c0-8.19-6.41-13.44-16.29-13.44s-16.38,5.25-16.38,13.44,6.59,13.44,16.38,13.44,16.29-5.34,16.29-13.44Zm-.89-29.19c0-7.65-6.14-12.73-15.4-12.73s-15.4,5.07-15.4,12.73,6.05,12.37,15.4,12.37,15.4-4.9,15.4-12.37Z"/>
        <path class="cls-1" d="m1479.96,722.01c0-20.29,7.74-31.15,22.16-31.15s22.25,10.86,22.25,31.15-7.74,31.33-22.25,31.33-22.16-10.86-22.16-31.33Zm40.68,0c0-18.25-6.23-27.59-18.51-27.59s-18.42,9.35-18.42,27.59,6.23,27.77,18.42,27.77,18.51-9.43,18.51-27.77Z"/>
        <path class="cls-1" d="m1533.9,722.01c0-20.29,7.74-31.15,22.16-31.15s22.25,10.86,22.25,31.15-7.74,31.33-22.25,31.33-22.16-10.86-22.16-31.33Zm40.68,0c0-18.25-6.23-27.59-18.51-27.59s-18.42,9.35-18.42,27.59,6.23,27.77,18.42,27.77,18.51-9.43,18.51-27.77Z"/>
        <path class="cls-1" d="m1621.74,725.49l-17.53,26.97h-4.63l13.53-20.56c-2.22.8-4.72,1.25-7.48,1.25-12.46,0-20.38-9.52-20.38-21.09s7.92-21.18,20.38-21.18,20.38,9.52,20.38,21.18c0,5.07-1.51,9.79-4.27,13.44Zm-16.11,4.09c10.24,0,16.64-7.92,16.64-17.53s-6.41-17.62-16.64-17.62-16.56,7.92-16.56,17.62,6.32,17.53,16.56,17.53Z"/>
      </g>
      <rect class="cls-2" width="366.78" height="781.52"/>
      <rect class="cls-2" x="1672.96" width="262.96" height="784"/>
    </g>
  </g>
</svg>